<svg xmlns="http://www.w3.org/2000/svg" version="1.1" xmlns:xlink="http://www.w3.org/1999/xlink" xmlns:svgjs="http://svgjs.com/svgjs" width="720" height="720" preserveAspectRatio="none" viewBox="0 0 720 720"><g mask="url(&quot;#SvgjsMask1125&quot;)" fill="none"><rect width="720" height="720" x="0" y="0" fill="url(#SvgjsLinearGradient1126)"></rect><path d="M385.7786754997761 146.11963013888368L592.205551978845 138.9110447684565 584.9969666084179-67.51583171061245 378.5700901293489-60.30724634018526z" fill="rgba(4, 81, 148, 0.4)" class="triangle-float1"></path><path d="M753.549,259.724C806.108,261.085,858.127,234.548,881.838,187.621C903.816,144.125,884.72,93.988,857.829,53.346C834.149,17.557,796.329,-2.888,753.549,-6.271C702.538,-10.305,643.303,-9.148,616.171,34.237C588.061,79.187,608.686,135.988,636.27,181.263C662.499,224.314,703.154,258.419,753.549,259.724" fill="rgba(4, 81, 148, 0.4)" class="triangle-float1"></path><path d="M556.242488205006 385.9450478167414L672.279693301601 375.79310782355674 546.0905482118213 269.9078427201464z" fill="rgba(4, 81, 148, 0.4)" class="triangle-float2"></path><path d="M439.382,747.523C470.436,748.395,502.802,737.979,518.329,711.071C533.851,684.172,525.493,651.631,510.365,624.509C494.74,596.496,471.457,569.338,439.382,569.534C407.534,569.729,384.618,597.131,369.888,625.369C356.421,651.186,353.36,681.534,367.758,706.843C382.31,732.421,409.966,746.697,439.382,747.523" fill="rgba(4, 81, 148, 0.4)" class="triangle-float2"></path><path d="M811.764,891.771C889.457,895.38,959.597,842.409,993.978,772.644C1024.991,709.713,1001.862,638.698,966.28,578.233C931.355,518.884,880.5,467.185,811.764,463.006C735.85,458.391,656.364,489.967,620.878,557.235C587.051,621.359,620.758,694.007,656.688,756.976C693.069,820.735,738.435,888.365,811.764,891.771" fill="rgba(4, 81, 148, 0.4)" class="triangle-float1"></path><path d="M238.49,563.636C291.617,565.94,344.866,539.478,369.018,492.102C391.538,447.926,369.515,398.351,344.609,355.475C319.861,312.871,287.747,266.278,238.49,267.396C190.281,268.49,162.788,317.4,140.398,360.108C120.111,398.803,107.235,442.213,126.204,481.57C147.777,526.331,188.849,561.483,238.49,563.636" fill="rgba(4, 81, 148, 0.4)" class="triangle-float1"></path><path d="M238.973,289.074C291.265,291.361,349.607,291.228,379.729,248.422C413.599,200.291,412.398,134.986,383.473,83.73C354.061,31.611,298.803,-2.323,238.973,-0.997C181.194,0.284,131.342,38.378,105.16,89.9C81.264,136.924,88.625,193.195,118.04,236.978C144.275,276.027,191.974,287.019,238.973,289.074" fill="rgba(4, 81, 148, 0.4)" class="triangle-float2"></path><path d="M793.81,840.837C852.53,841.109,899.557,800.281,931.419,750.956C967.064,695.773,998.789,628.96,968.241,570.8C936.232,509.859,862.51,484.646,793.81,488.965C732.078,492.846,682.145,535.686,653.635,590.578C627.422,641.048,630.602,700.072,658.394,749.69C686.893,800.57,735.493,840.567,793.81,840.837" fill="rgba(4, 81, 148, 0.4)" class="triangle-float2"></path></g><defs><mask id="SvgjsMask1125"><rect width="720" height="720" fill="#ffffff"></rect></mask><linearGradient x1="0%" y1="0%" x2="100%" y2="100%" gradientUnits="userSpaceOnUse" id="SvgjsLinearGradient1126"><stop stop-color="#0e2a47" offset="0"></stop><stop stop-color="rgba(12, 82, 172, 1)" offset="1"></stop></linearGradient><style>
            @keyframes float1 {
                0%{transform: translate(0, 0)}
                50%{transform: translate(-10px, 0)}
                100%{transform: translate(0, 0)}
            }

            .triangle-float1 {
                animation: float1 5s infinite;
            }

            @keyframes float2 {
                0%{transform: translate(0, 0)}
                50%{transform: translate(-5px, -5px)}
                100%{transform: translate(0, 0)}
            }

            .triangle-float2 {
                animation: float2 4s infinite;
            }

            @keyframes float3 {
                0%{transform: translate(0, 0)}
                50%{transform: translate(0, -10px)}
                100%{transform: translate(0, 0)}
            }

            .triangle-float3 {
                animation: float3 6s infinite;
            }
        </style></defs></svg>